<?xml version="1.0" encoding="UTF-8" standalone="no"?>
<svg
   xmlns:dc="http://purl.org/dc/elements/1.1/"
   xmlns:cc="http://creativecommons.org/ns#"
   xmlns:rdf="http://www.w3.org/1999/02/22-rdf-syntax-ns#"
   xmlns:svg="http://www.w3.org/2000/svg"
   xmlns="http://www.w3.org/2000/svg"
   xmlns:sodipodi="http://sodipodi.sourceforge.net/DTD/sodipodi-0.dtd"
   xmlns:inkscape="http://www.inkscape.org/namespaces/inkscape"
   viewBox="0 0 11.641667 11.64028"
   version="1.1"
   x="0px"
   y="0px"
   id="svg841"
   sodipodi:docname="noun_melting_2960784.svg"
   width="11.641666"
   height="11.64028"
   inkscape:version="1.0.2 (e86c8708, 2021-01-15)">
  <metadata
     id="metadata847">
    <rdf:RDF>
      <cc:Work
         rdf:about="">
        <dc:format>image/svg+xml</dc:format>
        <dc:type
           rdf:resource="http://purl.org/dc/dcmitype/StillImage" />
        <dc:title />
      </cc:Work>
    </rdf:RDF>
  </metadata>
  <defs
     id="defs845" />
  <sodipodi:namedview
     pagecolor="#ffffff"
     bordercolor="#666666"
     borderopacity="1"
     objecttolerance="10"
     gridtolerance="10"
     guidetolerance="10"
     inkscape:pageopacity="0"
     inkscape:pageshadow="2"
     inkscape:window-width="1678"
     inkscape:window-height="1057"
     id="namedview843"
     showgrid="false"
     inkscape:zoom="45.19685"
     inkscape:cx="5.8208335"
     inkscape:cy="7.4076401"
     inkscape:window-x="0"
     inkscape:window-y="25"
     inkscape:window-maximized="0"
     inkscape:current-layer="svg841"
     inkscape:document-rotation="0" />
  <g
     transform="translate(-0.52918421,-284.82987)"
     id="g835">
    <path
       d="m 2.4517523,284.82987 a 1.9220562,1.9220562 0 0 0 -1.92256803,1.92254 v 7.79657 a 1.9220562,1.9220562 0 0 0 1.92256803,1.92117 h 7.7965307 a 1.9220562,1.9220562 0 0 0 1.922568,-1.92117 v -7.79657 a 1.9220562,1.9220562 0 0 0 -1.922568,-1.92254 z m 0,0.40798 h 7.7965307 a 1.5136148,1.5136148 0 0 1 1.513254,1.51456 v 5.05671 a 0.77448837,0.77448837 0 0 1 -1.547346,0 v -2.38645 a 0.9203458,0.9203458 0 0 0 -1.8406916,0 v 1.47499 a 0.51197482,0.51197482 0 0 1 -1.0233204,0 v -2.09309 a 0.92034561,0.92034561 0 0 0 -1.8406912,0 v 3.33885 a 0.51154415,0.51154415 0 0 1 -1.021993,0 v -3.33885 a 0.91998555,0.91998555 0 0 0 -1.839294,0 v 1.75197 a 0.85481624,0.85481624 0 0 1 -1.70963249,0 v -3.80413 a 1.5136148,1.5136148 0 0 1 1.51318399,-1.51456 z m 1.0942989,3.07005 a 0.51154415,0.51154415 0 0 1 0.5321294,0.49667 v 3.33885 a 0.92059397,0.92059397 0 0 0 1.8406912,0 v -3.33885 a 0.5116602,0.5116602 0 0 1 1.0233204,0 v 2.09309 a 0.91998555,0.91998555 0 0 0 1.839294,0 v -1.47499 a 0.51169511,0.51169511 0 0 1 1.0233902,0 v 2.38645 a 1.1829298,1.1829298 0 0 0 1.9566606,0.89509 v 1.84477 a 1.5136148,1.5136148 0 0 1 -1.513254,1.51319 H 2.4517523 a 1.5136148,1.5136148 0 0 1 -1.51318399,-1.51319 v -3.06324 a 1.2627571,1.2627571 0 0 0 2.11761929,-0.9292 v -1.75197 a 0.51154415,0.51154415 0 0 1 0.4898636,-0.49667 z"
       fill="#000000"
       stroke="none"
       id="path833"
       style="fill:#27e8a7;fill-opacity:1" />
  </g>
  <text
     x="-0.52916646"
     y="27.170141"
     fill="#000000"
     font-size="5px"
     font-weight="bold"
     font-family="'Helvetica Neue', Helvetica, Arial-Unicode, Arial, Sans-serif"
     id="text837">Created by Phạm Thanh Lộc</text>
  <text
     x="-0.52916646"
     y="32.170139"
     fill="#000000"
     font-size="5px"
     font-weight="bold"
     font-family="'Helvetica Neue', Helvetica, Arial-Unicode, Arial, Sans-serif"
     id="text839">from the Noun Project</text>
</svg>
