<?xml version="1.0" encoding="UTF-8" standalone="no"?>
<svg
   xmlns:dc="http://purl.org/dc/elements/1.1/"
   xmlns:cc="http://creativecommons.org/ns#"
   xmlns:rdf="http://www.w3.org/1999/02/22-rdf-syntax-ns#"
   xmlns:svg="http://www.w3.org/2000/svg"
   xmlns="http://www.w3.org/2000/svg"
   xmlns:sodipodi="http://sodipodi.sourceforge.net/DTD/sodipodi-0.dtd"
   xmlns:inkscape="http://www.inkscape.org/namespaces/inkscape"
   width="25.14521mm"
   height="25.148542mm"
   viewBox="0 0 25.145211 25.148543"
   version="1.1"
   id="svg8"
   inkscape:version="1.0.2 (e86c8708, 2021-01-15)"
   sodipodi:docname="Spodivide_logo.svg">
  <defs
     id="defs2">
    <style
       id="style967">.a{fill-rule:evenodd;}.b{isolation:isolate;}</style>
  </defs>
  <sodipodi:namedview
     id="base"
     pagecolor="#ffffff"
     bordercolor="#666666"
     borderopacity="1.0"
     inkscape:pageopacity="0.0"
     inkscape:pageshadow="2"
     inkscape:zoom="6.3467303"
     inkscape:cx="85.354233"
     inkscape:cy="66.981862"
     inkscape:document-units="mm"
     inkscape:current-layer="layer2"
     inkscape:document-rotation="0"
     showgrid="false"
     inkscape:snap-nodes="true"
     inkscape:window-width="2560"
     inkscape:window-height="1332"
     inkscape:window-x="0"
     inkscape:window-y="25"
     inkscape:window-maximized="0"
     fit-margin-top="0"
     fit-margin-left="0.64"
     fit-margin-right="0.64"
     fit-margin-bottom="0" />
  <metadata
     id="metadata5">
    <rdf:RDF>
      <cc:Work
         rdf:about="">
        <dc:format>image/svg+xml</dc:format>
        <dc:type
           rdf:resource="http://purl.org/dc/dcmitype/StillImage" />
        <dc:title></dc:title>
      </cc:Work>
    </rdf:RDF>
  </metadata>
  <g
     inkscape:groupmode="layer"
     id="layer2"
     inkscape:label="Layer 2"
     transform="translate(327.05313,-57.858527)">
    <path
       id="circle843"
       style="display:inline;fill:#f8f9fa;fill-opacity:1;stroke-width:1.00157;stroke-miterlimit:4;stroke-dasharray:none"
       d="m 79.199219,71.224609 a 11,11 0 0 0 -11,11 11,11 0 0 0 11,11 11,11 0 0 0 11,-11 11,11 0 0 0 -11,-11 z m -5.138672,4.916016 a 0.93593586,0.93593586 0 0 1 0.0059,0 h 5.615235 a 0.93593586,0.93593586 0 0 1 0,1.871094 H 74.066447 A 0.93593586,0.93593586 0 0 1 73.1309,77.076172 0.93593586,0.93593586 0 0 1 74.060588,76.140625 Z m 8.433594,0 a 0.93594331,0.93594331 0 0 1 0.93164,0.935547 c 0,0.30418 0.131355,0.426419 0.884766,0.800781 0.767471,0.383732 1.921875,0.958395 1.921875,2.474609 a 0.9359365,0.9359365 0 0 1 -1.871094,0 c 0,-0.304176 -0.131317,-0.426446 -0.884766,-0.824218 h -0.05078 v 6.439453 a 2.4661909,2.4661909 0 0 1 -2.574219,2.339844 2.4661909,2.4661909 0 0 1 -2.574218,-2.339844 2.4661909,2.4661909 0 0 1 2.574218,-2.339844 2.8826824,2.8826824 0 0 1 0.701172,0.08984 v -6.640625 a 0.93594331,0.93594331 0 0 1 0.941407,-0.935547 z m -8.427735,4.210937 h 5.615235 a 0.9365235,0.9365235 0 0 1 0,1.873047 h -5.615235 a 0.9365235,0.9365235 0 0 1 0,-1.873047 z m 0,4.212891 h 2.339844 a 0.93593586,0.93593586 0 0 1 0,1.871094 h -2.339844 a 0.93593586,0.93593586 0 0 1 0,-1.871094 z"
       transform="matrix(0.26458333,0,0,0.26458333,-326.41313,57.858527)" />
    <path
       id="circle845"
       style="display:inline;fill:#f8f9fa;fill-opacity:1;stroke-width:1.00157;stroke-miterlimit:4;stroke-dasharray:none"
       d="m 79.199219,1.9257812 a 11,11 0 0 0 -11,10.9999998 11,11 0 0 0 11,11 11,11 0 0 0 11,-11 11,11 0 0 0 -11,-10.9999998 z m -5.138672,4.9140626 a 0.93593586,0.93593586 0 0 1 0.0059,0 h 5.615235 a 0.9365234,0.9365234 0 0 1 0,1.8730468 h -5.615235 a 0.93593586,0.93593586 0 0 1 -0.935547,-0.9375 0.93593586,0.93593586 0 0 1 0.929688,-0.9355468 z m 8.433594,0 a 0.93594331,0.93594331 0 0 1 0.93164,0.9355468 c 0,0.3041802 0.131355,0.4264191 0.884766,0.8007813 0.767471,0.3837316 1.921875,0.9603483 1.921875,2.4765621 a 0.9359365,0.9359365 0 0 1 -1.871094,0 c 0,-0.304176 -0.131317,-0.426446 -0.884766,-0.824218 h -0.05078 v 6.439453 a 2.4661909,2.4661909 0 0 1 -2.574219,2.339843 2.4661909,2.4661909 0 0 1 -2.574218,-2.339843 2.4661909,2.4661909 0 0 1 2.574218,-2.339844 2.8826824,2.8826824 0 0 1 0.701172,0.08789 V 7.7753906 a 0.93594331,0.93594331 0 0 1 0.941406,-0.9355468 z m -8.427735,4.2128902 h 5.615235 a 0.93593586,0.93593586 0 0 1 0,1.871094 h -5.615235 a 0.93593586,0.93593586 0 0 1 0,-1.871094 z m 0,4.210938 h 2.339844 a 0.93593586,0.93593586 0 0 1 0,1.871094 h -2.339844 a 0.93593586,0.93593586 0 0 1 0,-1.871094 z"
       transform="matrix(0.26458333,0,0,0.26458333,-326.41313,57.858527)" />
    <path
       id="path847"
       style="display:inline;fill:#f8f9fa;fill-opacity:1;stroke-width:1.00157;stroke-miterlimit:4;stroke-dasharray:none"
       d="m 48.988281,0 c -0.737504,0 -1.48789,0.27421813 -2.08789,0.82421875 -1.099994,1.10000125 -1.099994,2.90156265 0,4.10156245 L 52.099609,10.125 h -17.40039 c -1.600025,0 -2.898438,1.300388 -2.898438,2.900391 V 44.724609 H 21.599609 C 20.299603,40.024612 16.100019,36.525391 11,36.525391 c -6.1000062,0 -11,4.899997 -11,11 0,6.099998 4.8999938,11 11,11 5.100019,0 9.299603,-3.499611 10.599609,-8.09961 h 10.09961 V 82.125 c 0,1.599999 1.300403,2.900391 2.90039,2.900391 h 17.5 l -5.199218,5.199218 c -0.6,0.6 -0.800782,1.300002 -0.800782,2 0,0.700003 0.300901,1.499999 0.800782,2 1.100031,1.100002 2.899609,1.100002 4.099609,0 L 61,84.125 c 1.099994,-1.099997 1.099994,-2.899609 0,-4.099609 l -10,-10 c -1.100031,-1.099998 -2.899609,-1.099998 -4.099609,0 -1.099994,1.100001 -1.099994,2.899609 0,4.099609 l 5.199218,5.199219 H 37.5 V 50.425781 h 31.099609 c 1.300007,4.599999 5.499591,8.09961 10.59961,8.09961 6.099968,0 11,-4.900002 11,-11 0,-6.100003 -4.900032,-11 -11,-11 -5.100019,0 -9.299603,3.49961 -10.59961,8.099609 H 37.5 V 15.824219 h 14.599609 l -5.199218,5.201172 c -0.6,0.6 -0.800782,1.300001 -0.800782,2 0,0.699998 0.300901,1.499998 0.800782,2 1.100031,1.099997 2.899609,1.099997 4.099609,0 l 10,-10 c 1.099994,-1.099998 1.099994,-2.89961 0,-4.09961 L 51,0.82421875 C 50.449984,0.27421813 49.725785,0 48.988281,0 Z m 25.072266,41.439453 a 0.93593586,0.93593586 0 0 1 0.0059,0 h 5.615235 a 0.9365235,0.9365235 0 0 1 0,1.873047 H 74.066447 A 0.93593586,0.93593586 0 0 1 73.1309,42.375 0.93593586,0.93593586 0 0 1 74.060588,41.439453 Z m 8.433594,0 a 0.93594331,0.93594331 0 0 1 0.93164,0.935547 c 0,0.30418 0.131355,0.426419 0.884766,0.800781 0.767471,0.383732 1.921875,0.960349 1.921875,2.476563 a 0.9359365,0.9359365 0 0 1 -1.871094,0 c 0,-0.304177 -0.131317,-0.426446 -0.884766,-0.824219 h -0.05078 v 6.439453 a 2.4661909,2.4661909 0 0 1 -2.574219,2.339844 2.4661909,2.4661909 0 0 1 -2.574218,-2.339844 2.4661909,2.4661909 0 0 1 2.574218,-2.339844 2.8826824,2.8826824 0 0 1 0.701172,0.08789 V 42.375 a 0.93594331,0.93594331 0 0 1 0.941406,-0.935547 z M 7.515625,42.375 a 3.5039168,3.5039168 0 0 1 0.060547,0 3.5039168,3.5039168 0 0 1 3.082031,1.853516 3.5069167,3.5069167 0 0 1 6.599609,1.652343 3.4904171,3.4904171 0 0 1 -1.238281,2.679688 c 0,0 -4.454837,4.759112 -4.777343,5.099609 a 0.79648107,0.79648107 0 0 1 -1.167969,0 C 9.7577285,53.319666 5.2949219,48.554687 5.2949219,48.554688 h 0.00781 A 3.5039168,3.5039168 0 0 1 7.515625,42.375 Z m 66.550781,3.277344 h 5.615235 a 0.93593586,0.93593586 0 0 1 0,1.871094 h -5.615235 a 0.93593586,0.93593586 0 0 1 0,-1.871094 z m 0,4.210937 h 2.339844 a 0.93593586,0.93593586 0 0 1 0,1.871094 h -2.339844 a 0.93593586,0.93593586 0 0 1 0,-1.871094 z"
       transform="matrix(0.26458333,0,0,0.26458333,-326.41313,57.858527)" />
  </g>
</svg>
